<?xml version="1.0" encoding="UTF-8"?>
<svg xmlns="http://www.w3.org/2000/svg" xmlns:xlink="http://www.w3.org/1999/xlink" width="189px" height="42px" viewBox="0 0 188 42" version="1.1">
<defs>
<filter id="alpha" filterUnits="objectBoundingBox" x="0%" y="0%" width="100%" height="100%">
  <feColorMatrix type="matrix" in="SourceGraphic" values="0 0 0 0 1 0 0 0 0 1 0 0 0 0 1 0 0 0 1 0"/>
</filter>
<mask id="mask0">
  <g filter="url(#alpha)">
<rect x="0" y="0" width="188" height="42" style="fill:rgb(0%,0%,0%);fill-opacity:0.992157;stroke:none;"/>
  </g>
</mask>
<clipPath id="clip1">
  <rect x="0" y="0" width="188" height="42"/>
</clipPath>
<g id="surface5" clip-path="url(#clip1)">
<path style=" stroke:none;fill-rule:evenodd;fill:rgb(100%,0%,0%);fill-opacity:1;" d="M 20.488281 -0.0742188 C 26.753906 -0.0742188 33.023438 -0.0742188 39.289062 -0.0742188 C 43.289062 0.0742188 47.304688 0.34375 51.332031 0.738281 C 56.136719 1.332031 58.757812 4.058594 59.191406 8.914062 C 60.324219 17.527344 60.226562 26.125 58.898438 34.707031 C 58.304688 37.804688 56.519531 39.84375 53.535156 40.820312 C 52.277344 41.101562 51.003906 41.296875 49.71875 41.410156 C 47.296875 41.601562 44.898438 41.773438 42.519531 41.925781 C 34.148438 41.925781 25.777344 41.925781 17.40625 41.925781 C 13.933594 41.785156 10.457031 41.46875 6.976562 40.96875 C 4.019531 40.359375 2.085938 38.613281 1.175781 35.738281 C 0.503906 32.605469 0.0898438 29.460938 -0.0742188 26.304688 C -0.0742188 22.769531 -0.0742188 19.230469 -0.0742188 15.695312 C 0.0898438 12.539062 0.503906 9.394531 1.175781 6.261719 C 2.402344 2.871094 4.828125 1.03125 8.445312 0.738281 C 12.476562 0.347656 16.488281 0.078125 20.488281 -0.0742188 Z M 20.488281 -0.0742188 "/>
</g>
<mask id="mask1">
  <g filter="url(#alpha)">
<rect x="0" y="0" width="188" height="42" style="fill:rgb(0%,0%,0%);fill-opacity:0.972549;stroke:none;"/>
  </g>
</mask>
<clipPath id="clip2">
  <rect x="0" y="0" width="188" height="42"/>
</clipPath>
<g id="surface8" clip-path="url(#clip2)">
<path style=" stroke:none;fill-rule:evenodd;fill:rgb(15.294118%,15.294118%,15.294118%);fill-opacity:1;" d="M 152.96875 1.546875 C 154.929688 1.546875 156.886719 1.546875 158.84375 1.546875 C 158.820312 6.066406 158.84375 10.585938 158.917969 15.105469 C 160.875 12.160156 163.496094 11.347656 166.777344 12.671875 C 167.648438 13.222656 168.261719 13.984375 168.613281 14.957031 C 169.28125 17.015625 169.621094 19.128906 169.640625 21.292969 C 169.800781 25.234375 169.703125 29.164062 169.347656 33.085938 C 169.132812 35.160156 168.324219 36.957031 166.921875 38.464844 C 165.050781 39.570312 163.09375 39.71875 161.046875 38.90625 C 160.003906 38.398438 159.195312 37.636719 158.625 36.621094 C 158.4375 37.445312 158.21875 38.257812 157.964844 39.050781 C 156.300781 39.125 154.636719 39.152344 152.96875 39.125 C 152.96875 26.601562 152.96875 14.074219 152.96875 1.546875 Z M 160.902344 16.429688 C 161.964844 16.296875 162.675781 16.738281 163.03125 17.757812 C 163.273438 18.625 163.417969 19.511719 163.472656 20.410156 C 163.570312 23.898438 163.570312 27.386719 163.472656 30.875 C 163.417969 31.773438 163.273438 32.65625 163.03125 33.527344 C 162.546875 34.789062 161.640625 35.253906 160.3125 34.925781 C 159.691406 34.75 159.226562 34.382812 158.917969 33.820312 C 158.820312 28.761719 158.820312 23.703125 158.917969 18.640625 C 159.253906 17.59375 159.917969 16.855469 160.902344 16.429688 Z M 160.902344 16.429688 "/>
</g>
<mask id="mask2">
  <g filter="url(#alpha)">
<rect x="0" y="0" width="188" height="42" style="fill:rgb(0%,0%,0%);fill-opacity:0.976471;stroke:none;"/>
  </g>
</mask>
<clipPath id="clip3">
  <rect x="0" y="0" width="188" height="42"/>
</clipPath>
<g id="surface11" clip-path="url(#clip3)">
<path style=" stroke:none;fill-rule:evenodd;fill:rgb(15.294118%,15.294118%,15.294118%);fill-opacity:1;" d="M 65.726562 2.875 C 67.734375 2.824219 69.742188 2.875 71.75 3.019531 C 73.0625 8.902344 74.3125 14.796875 75.492188 20.707031 C 76.601562 14.777344 77.851562 8.882812 79.238281 3.019531 C 81.246094 2.824219 83.253906 2.824219 85.261719 3.019531 C 83.019531 10.972656 80.792969 18.933594 78.578125 26.894531 C 78.503906 30.972656 78.480469 35.046875 78.503906 39.125 C 76.496094 39.125 74.488281 39.125 72.484375 39.125 C 72.507812 35.148438 72.484375 31.167969 72.410156 27.191406 C 70.164062 19.085938 67.9375 10.980469 65.726562 2.875 Z M 65.726562 2.875 "/>
</g>
<mask id="mask3">
  <g filter="url(#alpha)">
<rect x="0" y="0" width="188" height="42" style="fill:rgb(0%,0%,0%);fill-opacity:0.960784;stroke:none;"/>
  </g>
</mask>
<clipPath id="clip4">
  <rect x="0" y="0" width="188" height="42"/>
</clipPath>
<g id="surface14" clip-path="url(#clip4)">
<path style=" stroke:none;fill-rule:evenodd;fill:rgb(15.294118%,15.294118%,15.294118%);fill-opacity:1;" d="M 117.574219 2.875 C 123.496094 2.875 129.421875 2.875 135.34375 2.875 C 135.34375 4.496094 135.34375 6.117188 135.34375 7.738281 C 133.386719 7.738281 131.429688 7.738281 129.46875 7.738281 C 129.46875 18.199219 129.46875 28.664062 129.46875 39.125 C 127.464844 39.125 125.457031 39.125 123.449219 39.125 C 123.449219 28.664062 123.449219 18.199219 123.449219 7.738281 C 121.488281 7.738281 119.53125 7.738281 117.574219 7.738281 C 117.574219 6.117188 117.574219 4.496094 117.574219 2.875 Z M 117.574219 2.875 "/>
</g>
<mask id="mask4">
  <g filter="url(#alpha)">
<rect x="0" y="0" width="188" height="42" style="fill:rgb(0%,0%,0%);fill-opacity:0.980392;stroke:none;"/>
  </g>
</mask>
<clipPath id="clip5">
  <rect x="0" y="0" width="188" height="42"/>
</clipPath>
<g id="surface17" clip-path="url(#clip5)">
<path style=" stroke:none;fill-rule:evenodd;fill:rgb(15.686275%,15.686275%,15.686275%);fill-opacity:1;" d="M 90.988281 12.011719 C 92.949219 11.898438 94.808594 12.269531 96.570312 13.117188 C 98.019531 14.226562 98.972656 15.675781 99.433594 17.464844 C 99.742188 18.671875 99.9375 19.902344 100.023438 21.148438 C 100.121094 24.292969 100.121094 27.433594 100.023438 30.578125 C 99.46875 38.25 95.480469 41.023438 88.050781 38.90625 C 86.097656 38.015625 84.851562 36.515625 84.304688 34.410156 C 84.015625 33.246094 83.820312 32.070312 83.71875 30.875 C 83.621094 27.535156 83.621094 24.191406 83.71875 20.851562 C 83.8125 18.613281 84.449219 16.550781 85.628906 14.664062 C 87.039062 13.011719 88.824219 12.125 90.988281 12.011719 Z M 91.429688 16.285156 C 92.164062 16.222656 92.777344 16.46875 93.265625 17.019531 C 93.8125 18.339844 94.058594 19.714844 94 21.148438 C 94.125 24.980469 94.074219 28.8125 93.851562 32.640625 C 93.820312 33.613281 93.453125 34.421875 92.75 35.074219 C 91.859375 35.480469 91.097656 35.308594 90.476562 34.558594 C 90.140625 33.910156 89.945312 33.222656 89.886719 32.496094 C 89.789062 28.023438 89.789062 23.554688 89.886719 19.085938 C 89.898438 17.832031 90.410156 16.898438 91.429688 16.285156 Z M 91.429688 16.285156 "/>
</g>
<mask id="mask5">
  <g filter="url(#alpha)">
<rect x="0" y="0" width="188" height="42" style="fill:rgb(0%,0%,0%);fill-opacity:0.976471;stroke:none;"/>
  </g>
</mask>
<clipPath id="clip6">
  <rect x="0" y="0" width="188" height="42"/>
</clipPath>
<g id="surface20" clip-path="url(#clip6)">
<path style=" stroke:none;fill-rule:evenodd;fill:rgb(15.294118%,15.294118%,15.294118%);fill-opacity:1;" d="M 187.925781 19.671875 C 187.925781 22.425781 187.925781 25.175781 187.925781 27.925781 C 184.648438 27.925781 181.367188 27.925781 178.085938 27.925781 C 178.050781 29.75 178.121094 31.566406 178.304688 33.378906 C 178.558594 34.859375 179.414062 35.472656 180.875 35.222656 C 181.710938 34.894531 182.179688 34.28125 182.273438 33.378906 C 182.4375 32.550781 182.511719 31.714844 182.492188 30.875 C 184.261719 30.90625 186.023438 31.003906 187.78125 31.167969 C 188.152344 33.875 187.371094 36.160156 185.429688 38.019531 C 183.207031 39.355469 180.808594 39.796875 178.234375 39.347656 C 175.890625 39 174.253906 37.746094 173.3125 35.589844 C 172.304688 32.402344 171.9375 29.136719 172.210938 25.789062 C 171.9375 22.441406 172.304688 19.175781 173.3125 15.988281 C 174.265625 13.855469 175.90625 12.601562 178.234375 12.230469 C 184.234375 11.160156 187.46875 13.640625 187.925781 19.671875 Z M 179.40625 16.285156 C 181.214844 16.105469 182.117188 16.941406 182.125 18.789062 C 182.199219 20.605469 182.222656 22.425781 182.199219 24.242188 C 180.828125 24.242188 179.457031 24.242188 178.085938 24.242188 C 178.039062 22.222656 178.113281 20.207031 178.304688 18.199219 C 178.375 17.371094 178.742188 16.730469 179.40625 16.285156 Z M 179.40625 16.285156 "/>
</g>
<mask id="mask6">
  <g filter="url(#alpha)">
<rect x="0" y="0" width="188" height="42" style="fill:rgb(0%,0%,0%);fill-opacity:0.976471;stroke:none;"/>
  </g>
</mask>
<clipPath id="clip7">
  <rect x="0" y="0" width="188" height="42"/>
</clipPath>
<g id="surface23" clip-path="url(#clip7)">
<path style=" stroke:none;fill-rule:evenodd;fill:rgb(15.294118%,15.294118%,15.294118%);fill-opacity:1;" d="M 103.03125 12.601562 C 105.039062 12.601562 107.046875 12.601562 109.054688 12.601562 C 109.03125 19.28125 109.054688 25.960938 109.128906 32.640625 C 109.148438 35.027344 110.203125 35.691406 112.285156 34.632812 C 112.609375 34.355469 112.878906 34.035156 113.09375 33.671875 C 113.167969 26.648438 113.191406 19.625 113.167969 12.601562 C 115.175781 12.601562 117.183594 12.601562 119.1875 12.601562 C 119.1875 21.441406 119.1875 30.285156 119.1875 39.125 C 117.621094 39.175781 116.050781 39.125 114.488281 38.980469 C 114.292969 37.996094 114.097656 37.015625 113.902344 36.03125 C 111.90625 39.320312 109.117188 40.277344 105.53125 38.90625 C 104.464844 38.21875 103.78125 37.261719 103.472656 36.03125 C 103.292969 35.304688 103.167969 34.566406 103.105469 33.820312 C 103.03125 26.746094 103.007812 19.675781 103.03125 12.601562 Z M 103.03125 12.601562 "/>
</g>
<mask id="mask7">
  <g filter="url(#alpha)">
<rect x="0" y="0" width="188" height="42" style="fill:rgb(0%,0%,0%);fill-opacity:0.976471;stroke:none;"/>
  </g>
</mask>
<clipPath id="clip8">
  <rect x="0" y="0" width="188" height="42"/>
</clipPath>
<g id="surface26" clip-path="url(#clip8)">
<path style=" stroke:none;fill-rule:evenodd;fill:rgb(15.294118%,15.294118%,15.294118%);fill-opacity:1;" d="M 133.4375 12.601562 C 135.441406 12.601562 137.449219 12.601562 139.457031 12.601562 C 139.433594 19.476562 139.457031 26.355469 139.53125 33.230469 C 139.554688 34.78125 140.316406 35.394531 141.808594 35.074219 C 142.605469 34.808594 143.167969 34.292969 143.496094 33.527344 C 143.570312 26.550781 143.59375 19.574219 143.570312 12.601562 C 145.578125 12.601562 147.585938 12.601562 149.59375 12.601562 C 149.59375 21.441406 149.59375 30.285156 149.59375 39.125 C 147.976562 39.125 146.359375 39.125 144.746094 39.125 C 144.667969 38.078125 144.496094 37.046875 144.230469 36.03125 C 142.476562 39.042969 139.90625 40.097656 136.519531 39.199219 C 135.25 38.691406 134.394531 37.785156 133.949219 36.472656 C 133.757812 35.796875 133.609375 35.109375 133.507812 34.410156 C 133.4375 27.140625 133.410156 19.871094 133.4375 12.601562 Z M 133.4375 12.601562 "/>
</g>
</defs>
<g id="surface1">
<use xlink:href="#surface5" mask="url(#mask0)"/>
<use xlink:href="#surface8" mask="url(#mask1)"/>
<use xlink:href="#surface11" mask="url(#mask2)"/>
<use xlink:href="#surface14" mask="url(#mask3)"/>
<use xlink:href="#surface17" mask="url(#mask4)"/>
<use xlink:href="#surface20" mask="url(#mask5)"/>
<path style=" stroke:none;fill-rule:evenodd;fill:rgb(100%,75.686275%,75.686275%);fill-opacity:1;" d="M 24.160156 12.15625 C 24.015625 18.027344 23.964844 23.921875 24.015625 29.84375 C 23.914062 27.003906 23.867188 24.054688 23.867188 21 C 23.917969 18.003906 23.964844 15.007812 24.015625 12.011719 C 24.101562 12.027344 24.152344 12.078125 24.160156 12.15625 Z M 24.160156 12.15625 "/>
<path style=" stroke:none;fill-rule:evenodd;fill:rgb(100%,99.215686%,99.215686%);fill-opacity:1;" d="M 24.160156 12.15625 C 29.277344 14.996094 34.320312 17.941406 39.289062 21 C 34.242188 24.023438 29.152344 26.96875 24.015625 29.84375 C 23.964844 23.921875 24.015625 18.027344 24.160156 12.15625 Z M 24.160156 12.15625 "/>
<use xlink:href="#surface23" mask="url(#mask6)"/>
<use xlink:href="#surface26" mask="url(#mask7)"/>
</g>
</svg>
